<svg width="146" height="36" viewBox="0 0 146 36" fill="none" xmlns="http://www.w3.org/2000/svg">
<path d="M5.56802 35L0.624023 1.4H5.76002L8.40002 21.416C8.43202 21.656 8.48802 22.04 8.56802 22.568C8.64802 23.08 8.70402 23.48 8.73602 23.768C8.78402 23.48 8.85602 23.096 8.95202 22.616C9.06402 22.12 9.15202 21.704 9.21602 21.368L13.248 1.4H16.32L20.4 21.272C20.496 21.72 20.584 22.136 20.664 22.52C20.744 22.888 20.816 23.256 20.88 23.624C20.96 23.16 21.024 22.76 21.072 22.424C21.12 22.072 21.168 21.704 21.216 21.32L23.424 1.4H28.944L23.952 35H19.44L15.168 14.456C15.072 13.992 14.984 13.568 14.904 13.184C14.84 12.784 14.784 12.392 14.736 12.008C14.688 12.392 14.624 12.776 14.544 13.16C14.48 13.528 14.4 13.944 14.304 14.408L10.08 35H5.56802Z" fill="#030712"/>
<path d="M42.4902 35.576C40.7782 35.576 39.2342 35.272 37.8582 34.664C36.4982 34.056 35.4181 33.152 34.6181 31.952C33.8181 30.736 33.4181 29.224 33.4181 27.416C33.4181 25.528 33.8982 23.992 34.8582 22.808C35.8182 21.608 37.0421 20.728 38.5301 20.168C40.0341 19.592 41.5941 19.304 43.2101 19.304C44.4581 19.304 45.5702 19.416 46.5462 19.64C47.5222 19.848 48.4421 20.168 49.3061 20.6V19.16C49.3061 18.072 49.1141 17.208 48.7301 16.568C48.3461 15.912 47.7861 15.448 47.0501 15.176C46.3301 14.888 45.4661 14.744 44.4581 14.744C43.0981 14.744 41.7461 14.968 40.4021 15.416C39.0741 15.864 37.8341 16.472 36.6821 17.24L35.0021 12.728C36.1861 11.976 37.6421 11.32 39.3701 10.76C41.0981 10.184 42.9541 9.89601 44.9381 9.89601C46.0261 9.89601 47.1382 10.008 48.2742 10.232C49.4262 10.44 50.4821 10.864 51.4422 11.504C52.4181 12.128 53.2022 13.056 53.7942 14.288C54.3862 15.504 54.6821 17.112 54.6821 19.112V35H49.3061V33.08C48.6341 33.72 47.7462 34.296 46.6422 34.808C45.5542 35.32 44.1701 35.576 42.4902 35.576ZM43.4981 30.728C44.8421 30.728 45.9861 30.48 46.9301 29.984C47.8901 29.488 48.6821 28.92 49.3061 28.28V25.112C48.6341 24.776 47.8421 24.512 46.9301 24.32C46.0341 24.112 45.0822 24.008 44.0742 24.008C42.6662 24.008 41.4261 24.28 40.3541 24.824C39.2821 25.352 38.7462 26.216 38.7462 27.416C38.7462 28.392 39.1621 29.192 39.9941 29.816C40.8261 30.424 41.9941 30.728 43.4981 30.728Z" fill="#030712"/>
<path d="M59.9243 35V30.104H64.3883V15.368H59.9243V10.472H64.3883V8.504C64.3883 6.84 64.8283 5.528 65.7083 4.56801C66.5883 3.592 67.6843 2.904 68.9963 2.504C70.3243 2.088 71.6523 1.88 72.9803 1.88C74.7083 1.88 76.1403 2.048 77.2763 2.384C78.4123 2.72 79.5883 3.224 80.8043 3.89601L79.1243 7.784C78.2123 7.304 77.3163 7 76.4363 6.872C75.5563 6.744 74.6923 6.68 73.8443 6.68C72.9803 6.68 72.2123 6.8 71.5403 7.04C70.8683 7.264 70.3403 7.60001 69.9563 8.04801C69.5723 8.49601 69.3803 9.04801 69.3803 9.70401V10.472H75.4763V15.368H69.3803V30.104H72.2603V35H59.9243ZM75.6203 35V30.104H78.5003V15.368H72.9323V10.472H78.5003V7.112C78.5003 5.4 78.8603 4.096 79.5803 3.2C80.3163 2.288 81.1963 1.664 82.2203 1.328C83.2603 0.992004 84.2443 0.824005 85.1723 0.824005C86.1163 0.824005 86.9643 0.920005 87.7163 1.112C88.4683 1.288 89.2043 1.592 89.9243 2.024V6.58401C89.1883 6.21601 88.5323 5.984 87.9563 5.888C87.3803 5.776 86.8523 5.72001 86.3723 5.72001C85.7963 5.72001 85.2923 5.808 84.8603 5.984C84.4283 6.16 84.0923 6.432 83.8523 6.8C83.6123 7.15201 83.4923 7.60801 83.4923 8.168V10.472H87.9563V15.368H83.4923V30.104H87.9563V35H75.6203Z" fill="#030712"/>
<path d="M104.046 35.576C101.614 35.576 99.5184 35.048 97.7584 33.992C96.0144 32.92 94.6704 31.424 93.7264 29.504C92.7984 27.568 92.3344 25.304 92.3344 22.712C92.3344 20.056 92.8144 17.776 93.7744 15.872C94.7344 13.952 96.0864 12.48 97.8304 11.456C99.5904 10.416 101.662 9.89601 104.046 9.89601C106.014 9.89601 107.806 10.312 109.422 11.144C111.038 11.976 112.318 13.248 113.262 14.96C114.222 16.672 114.702 18.856 114.702 21.512C114.702 21.944 114.694 22.456 114.678 23.048C114.662 23.64 114.606 24.248 114.51 24.872H96.5584V20.168H109.278C109.166 18.904 108.854 17.872 108.342 17.072C107.83 16.272 107.198 15.688 106.446 15.32C105.694 14.936 104.894 14.744 104.046 14.744C101.79 14.744 100.158 15.448 99.1504 16.856C98.1584 18.264 97.6624 20.184 97.6624 22.616C97.6624 25.032 98.2224 26.984 99.3424 28.472C100.478 29.944 102.062 30.68 104.094 30.68C105.182 30.68 106.166 30.488 107.046 30.104C107.926 29.72 108.75 29.112 109.518 28.28L112.83 31.784C111.806 32.904 110.558 33.816 109.086 34.52C107.63 35.224 105.95 35.576 104.046 35.576Z" fill="#030712"/>
<path d="M120.761 35V30.152H125.945V15.32H120.761V10.472H131.081V15.896L130.793 15.176C131.097 14.168 131.657 13.264 132.473 12.464C133.305 11.664 134.329 11.04 135.545 10.592C136.777 10.128 138.137 9.89601 139.625 9.89601C140.857 9.89601 141.945 10.032 142.889 10.304C143.833 10.56 144.617 10.856 145.241 11.192V20.264H139.865V12.824L142.217 15.224C141.737 15.144 141.289 15.088 140.873 15.056C140.473 15.008 140.137 14.984 139.865 14.984C137.849 14.984 136.225 15.28 134.993 15.872C133.761 16.448 132.865 17.28 132.305 18.368C131.745 19.456 131.465 20.744 131.465 22.232V30.152H138.329V35H120.761Z" fill="#030712"/>
</svg>
